<svg width="33" height="32" viewBox="0 0 33 32" fill="" xmlns="http://www.w3.org/2000/svg">
<path fill-rule="evenodd" clip-rule="evenodd" d="M16.288 0C7.294 0 0 7.293 0 16.29C0 23.487 4.667 29.592 11.14 31.746C11.955 31.896 12.252 31.393 12.252 30.961C12.252 30.574 12.238 29.55 12.23 28.191C7.699 29.175 6.743 26.007 6.743 26.007C6.002 24.125 4.934 23.624 4.934 23.624C3.455 22.614 5.046 22.634 5.046 22.634C6.681 22.749 7.541 24.313 7.541 24.313C8.994 26.802 11.354 26.083 12.282 25.666C12.43 24.614 12.851 23.896 13.316 23.489C9.699 23.078 5.896 21.68 5.896 15.438C5.896 13.66 6.531 12.205 7.573 11.067C7.405 10.655 6.846 8.998 7.733 6.756C7.733 6.756 9.1 6.318 12.212 8.426C13.511 8.064 14.905 7.884 16.29 7.877C17.674 7.884 19.067 8.064 20.368 8.426C23.478 6.318 24.843 6.756 24.843 6.756C25.732 8.998 25.173 10.655 25.006 11.067C26.05 12.205 26.68 13.66 26.68 15.438C26.68 21.696 22.871 23.073 19.243 23.476C19.827 23.979 20.348 24.973 20.348 26.492C20.348 28.67 20.328 30.427 20.328 30.961C20.328 31.397 20.622 31.904 21.448 31.745C27.916 29.586 32.579 23.485 32.579 16.29C32.579 7.293 25.285 0 16.288 0" fill=""/>
</svg>
