<?xml version="1.0" encoding="UTF-8" standalone="no"?>
<svg
   xmlns:dc="http://purl.org/dc/elements/1.1/"
   xmlns:cc="http://creativecommons.org/ns#"
   xmlns:rdf="http://www.w3.org/1999/02/22-rdf-syntax-ns#"
   xmlns:svg="http://www.w3.org/2000/svg"
   xmlns="http://www.w3.org/2000/svg"
   xmlns:sodipodi="http://sodipodi.sourceforge.net/DTD/sodipodi-0.dtd"
   xmlns:inkscape="http://www.inkscape.org/namespaces/inkscape"
   width="512"
   height="512"
   clip-rule="evenodd"
   version="1.1"
   id="svg34"
   sodipodi:docname="medium.svg"
   inkscape:version="1.0.1 (c497b03c, 2020-09-10)">
  <metadata
     id="metadata40">
    <rdf:RDF>
      <cc:Work
         rdf:about="">
        <dc:format>image/svg+xml</dc:format>
        <dc:type
           rdf:resource="http://purl.org/dc/dcmitype/StillImage" />
      </cc:Work>
    </rdf:RDF>
  </metadata>
  <defs
     id="defs38" />
  <sodipodi:namedview
     pagecolor="#ffffff"
     bordercolor="#666666"
     borderopacity="1"
     objecttolerance="10"
     gridtolerance="10"
     guidetolerance="10"
     inkscape:pageopacity="0"
     inkscape:pageshadow="2"
     inkscape:window-width="1574"
     inkscape:window-height="1124"
     id="namedview36"
     showgrid="false"
     inkscape:zoom="1.96875"
     inkscape:cx="174.73016"
     inkscape:cy="296.63492"
     inkscape:window-x="616"
     inkscape:window-y="175"
     inkscape:window-maximized="0"
     inkscape:current-layer="svg34" />
  <g
     id="g27">
    <title
       id="title24">background</title>
    <rect
       fill="none"
       id="canvas_background"
       height="402"
       width="582"
       y="-1"
       x="-1" />
  </g>
  <g
     id="g32"
     style="fill:#000000">
    <title
       id="title29">Layer 1</title>
    <path
       fill="#ffffff"
       id="svg_1"
       d="M 256,0 C 397.29,0 512,114.71 512,256 512,397.29 397.29,512 256,512 114.71,512 0,397.29 0,256 0,114.71 114.71,0 256,0 Z m 149.439,390.919 v -5.04 L 382.05,362.916 c -2.065,-1.573 -3.089,-4.161 -2.661,-6.721 V 187.476 c -0.428,-2.561 0.596,-5.148 2.661,-6.722 L 406,157.792 v -5.041 H 323.088 L 263.983,300.189 196.756,152.751 h -86.975 v 5.041 l 28.012,33.744 c 2.751,2.478 4.154,6.119 3.781,9.802 v 132.595 c 0.815,4.782 -0.692,9.669 -4.06,13.161 L 106,385.318 v 5.04 h 89.356 v -5.04 l -31.513,-38.224 c -3.394,-3.485 -4.995,-8.34 -4.342,-13.161 V 219.26 l 78.433,171.098 h 9.103 L 314.404,219.26 v 136.376 c 0,3.639 0,4.34 -2.382,6.719 l -24.229,23.524 v 5.04 z"
       style="fill:#000000" />
  </g>
  <path
     style="fill:#000000;stroke-width:0.507937"
     d="M 238.73016,511.17338 C 167.41926,506.38046 101.02907,471.51227 56.156592,415.28556 21.940873,372.41212 2.3434326,319.73867 0.57866357,265.90476 -0.90051218,220.78282 7.849057,180.5801 27.772835,140.95238 39.959843,116.71283 55.316114,95.416777 74.666667,75.920081 143.2532,6.8155561 244.40354,-17.295178 336.7619,13.445662 c 79.81134,26.564649 141.63997,91.042208 165.07526,172.147608 9.71972,33.6383 12.29226,71.06725 7.31784,106.47022 -9.35813,66.60181 -45.673,127.81558 -100.01214,168.58444 -48.81822,36.6267 -109.5036,54.61922 -170.4127,50.52545 z M 405.84127,388.67543 v -2.68966 l -12.51049,-12.42145 c -6.89684,-6.84777 -12.82273,-13.15488 -13.20635,-14.05594 -1.03051,-2.42052 -1.03849,-173.07583 -0.008,-175.52469 0.4082,-0.97027 5.87711,-6.58845 13.45759,-13.82496 l 12.76994,-12.19048 0.003,-2.66666 0.003,-2.66667 -41.77778,0.003 -41.77778,0.003 -29.43338,73.47509 c -16.18837,40.4113 -29.50923,73.24756 -29.60194,72.96945 -0.0927,-0.27811 -15.11589,-33.2859 -33.38488,-73.35064 l -33.21595,-72.84501 -43.72141,-0.1298 -43.72141,-0.12981 v 2.79317 2.79317 l 15.03544,18.09584 c 8.2695,9.95271 15.35158,18.85245 15.73796,19.7772 0.58631,1.40323 0.70665,13.45279 0.72746,72.84369 0.024,68.42072 -0.0116,71.2449 -0.92418,73.30547 -0.52203,1.17872 -8.52961,11.33486 -17.79466,22.56918 l -16.84552,20.42606 v 2.55807 2.55808 h 44.95238 44.95239 l -0.005,-2.66667 -0.005,-2.66667 -16.42692,-19.90972 c -9.03481,-10.95035 -16.7834,-20.45378 -17.2191,-21.11874 -2.16637,-3.30629 -2.16614,-3.29852 -1.89945,-64.28917 l 0.25397,-58.07954 38.61669,84.23827 38.61669,84.23827 h 4.98849 4.98848 l 33.09324,-84.05189 33.09324,-84.05188 0.12881,68.73281 c 0.12677,67.63897 0.11293,68.7543 -0.86956,70.08363 -0.5491,0.74295 -6.47538,6.60796 -13.16951,13.03336 l -12.17114,11.68254 -0.0387,2.92063 -0.0386,2.92064 h 59.17461 59.1746 z"
     id="path42" />
</svg>
