<?xml version="1.0" encoding="UTF-8" standalone="no"?>
<svg
   xmlns:dc="http://purl.org/dc/elements/1.1/"
   xmlns:cc="http://creativecommons.org/ns#"
   xmlns:rdf="http://www.w3.org/1999/02/22-rdf-syntax-ns#"
   xmlns:svg="http://www.w3.org/2000/svg"
   xmlns="http://www.w3.org/2000/svg"
   xmlns:sodipodi="http://sodipodi.sourceforge.net/DTD/sodipodi-0.dtd"
   xmlns:inkscape="http://www.inkscape.org/namespaces/inkscape"
   width="26px"
   height="32px"
   viewBox="0 0 51 64"
   version="1.1"
   id="svg840"
   sodipodi:docname="riot.svg"
   inkscape:version="1.0.1 (c497b03c, 2020-09-10)">
  <metadata
     id="metadata846">
    <rdf:RDF>
      <cc:Work
         rdf:about="">
        <dc:format>image/svg+xml</dc:format>
        <dc:type
           rdf:resource="http://purl.org/dc/dcmitype/StillImage" />
      </cc:Work>
    </rdf:RDF>
  </metadata>
  <defs
     id="defs844" />
  <sodipodi:namedview
     pagecolor="#ffffff"
     bordercolor="#666666"
     borderopacity="1"
     objecttolerance="10"
     gridtolerance="10"
     guidetolerance="10"
     inkscape:pageopacity="0"
     inkscape:pageshadow="2"
     inkscape:window-width="1241"
     inkscape:window-height="1061"
     id="namedview842"
     showgrid="false"
     inkscape:zoom="25.692308"
     inkscape:cx="13"
     inkscape:cy="16"
     inkscape:window-x="0"
     inkscape:window-y="23"
     inkscape:window-maximized="0"
     inkscape:current-layer="svg840" />
  <!-- Generator: Sketch 56.3 (81716) - https://sketch.com -->
  <title
     id="title833">icon</title>
  <desc
     id="desc835">Created with Sketch.</desc>
  <g
     id="Nautilus-Cloud-MVP"
     stroke="none"
     stroke-width="1"
     fill="none"
     fill-rule="evenodd"
     style="fill:#000000;fill-opacity:1">
    <g
       id="Nautilus-Cloud-Homepage"
       transform="translate(-1360.000000, -1343.000000)"
       fill="#FFFFFF"
       style="fill:#000000;fill-opacity:1">
      <path
         d="M1381.75735,1387 L1378,1387 L1378,1397 C1378,1401.97056 1373.97056,1406 1369,1406 C1364.02944,1406 1360,1401.97056 1360,1397 L1360,1377 L1360,1352 C1360,1347.02944 1364.02944,1343 1369,1343 L1389,1343 L1389,1343.02232 C1400.68613,1343.54511 1410,1353.18487 1410,1365 C1410,1371.95137 1406.77601,1378.14973 1401.74173,1382.1814 L1408.53298,1391.52875 C1411.61691,1395.77343 1410.67595,1401.71444 1406.43128,1404.79837 C1402.1866,1407.88231 1396.24559,1406.94135 1393.16165,1402.69667 L1381.75735,1387 Z M1370,1362 C1374.97056,1362 1379,1357.97056 1379,1353 C1379,1348.02944 1374.97056,1344 1370,1344 C1365.02944,1344 1361,1348.02944 1361,1353 C1361,1357.97056 1365.02944,1362 1370,1362 Z M1381.15651,1370.01064 C1377.35864,1372.76995 1376.51673,1378.0856 1379.27604,1381.88346 L1393.97067,1402.10889 C1396.72998,1405.90675 1402.04562,1406.74867 1405.84349,1403.98936 C1409.64136,1401.23005 1410.48327,1395.9144 1407.72396,1392.11654 L1393.02933,1371.89111 C1390.27002,1368.09325 1384.95438,1367.25133 1381.15651,1370.01064 Z"
         id="icon"
         style="fill:#000000;fill-opacity:1" />
    </g>
  </g>
</svg>
