<svg width="18" height="18" viewBox="0 0 18 18" fill="none" xmlns="http://www.w3.org/2000/svg">
<path d="M0.819336 2.79316V13.3628C0.819336 14.1933 2.79382 15.3918 4.68271 16.2376L9.31933 17.75L14.0086 16.2376C16.5313 15.0627 17.8193 14.1933 17.8193 13.3628V2.79316C17.8193 1.96269 16.9693 1.28321 15.9304 1.28321L9.31933 0.25L2.70822 1.28321C1.65989 1.28321 0.819336 1.96269 0.819336 2.79316ZM12.1527 5.81307C12.1527 7.06633 10.8871 8.078 9.31933 8.078C7.75156 8.078 6.486 7.06633 6.486 5.81307C6.486 4.55981 7.75156 3.54814 9.31933 3.54814C10.8871 3.54814 12.1527 4.55981 12.1527 5.81307ZM3.65267 11.8529C3.65267 10.3429 7.43045 9.51245 9.31933 9.51245C11.2082 9.51245 14.986 10.3429 14.986 11.8529V12.6079H3.65267V11.8529Z" fill="#426DD5"/>
</svg>
